# xmcd
#
# Track frame offsets:
# 150
# 16497
# 30456
# 46439
# 46891
# 75981
# 93457
# 111291
# 125659
# 143058
# 161114
#
# Disc length: 2393 seconds
#
#
# Revision: 0
# Processed by: cddbd v1.5PL3 Copyright (c) Steve Scherf et al.
# Submitted via: FreeRIP 2.53 
#
DISCID=8a09570b
DTITLE=Rascal Flatts - Rascal Flatts
DYEAR=1900
DGENRE=
TTITLE0=Praying For Daylight
TTITLE1=This Everyday Love
TTITLE2=While You Loved Me
TTITLE3=Some Say
TTITLE4=See Me Through
TTITLE5=One Good Love
TTITLE6=It's Not Just Me
TTITLE7=Waiting All My Life
TTITLE8=From Time To Time
TTITLE9=Long Slow Beautiful Dance
TTITLE10=I'm Movin' On
EXTD=
EXTT0=
EXTT1=
EXTT2=
EXTT3=
EXTT4=
EXTT5=
EXTT6=
EXTT7=
EXTT8=
EXTT9=
EXTT10=
PLAYORDER=
